<svg width="58" height="58" viewBox="0 0 58 58" fill="none" xmlns="http://www.w3.org/2000/svg">
<path d="M46.1107 36.7029L43.1611 39.6525L41.3945 37.8778C41.0679 37.5511 40.5381 37.5511 40.2115 37.8778C39.8848 38.2045 39.8848 38.7342 40.2115 39.0609L42.5695 41.419C42.7257 41.5768 42.9389 41.6655 43.1611 41.6655C43.3832 41.6655 43.596 41.5768 43.7526 41.419L47.3271 37.8778C47.5647 37.6744 47.6684 37.3546 47.5952 37.0503C47.522 36.7456 47.2844 36.508 46.9801 36.4347C46.6758 36.3615 46.356 36.4653 46.1521 36.7029H46.1107Z" fill="#FFBB01"/>
<g filter="url(#filter0_d)">
<path d="M47.3271 30.9123V28.3292C47.3271 27.8691 46.954 27.496 46.4939 27.496H43.9943V26.6628C43.9943 25.2824 45.1135 24.1632 46.4939 24.1632C46.954 24.1632 47.3271 23.7901 47.3271 23.33C47.3271 22.8698 46.954 22.4968 46.4939 22.4968C44.1932 22.4968 42.3278 24.3621 42.3278 26.6628V27.496H39.8282C39.3681 27.496 38.995 27.8691 38.995 28.3292V30.9123C34.7219 32.8708 32.3903 37.5414 33.3924 42.1334C34.3948 46.7258 38.4604 50.0001 43.161 50.0001C47.8613 50.0001 51.9273 46.7258 52.9297 42.1334C53.9318 37.5414 51.6002 32.8708 47.3271 30.9123V30.9123ZM43.9943 48.3263V47.4931C43.9943 47.033 43.6212 46.6599 43.161 46.6599C42.7009 46.6599 42.3278 47.033 42.3278 47.4931V48.3263C38.3546 47.9455 35.2097 44.8006 34.8289 40.8274H35.6621C36.1223 40.8274 36.4953 40.4543 36.4953 39.9942C36.4953 39.5341 36.1223 39.161 35.6621 39.161H34.8289C35.143 36.0491 37.1731 33.3753 40.0865 32.237C40.4071 32.1133 40.6187 31.8057 40.6199 31.4619V29.1625H45.6192V31.4619C45.62 31.8057 45.8316 32.1133 46.1522 32.237C49.0981 33.3505 51.1644 36.0291 51.4932 39.161H50.66C50.1998 39.161 49.8267 39.5341 49.8267 39.9942C49.8267 40.4543 50.1998 40.8274 50.66 40.8274H51.4932C51.1124 44.8006 47.9675 47.9455 43.9943 48.3263V48.3263Z" fill="#FFBB01"/>
</g>
<g filter="url(#filter1_d)">
<path d="M30.8377 43.327C30.6628 43.327 8.16606 43.327 8.16606 43.327C6.78565 43.327 5.66642 42.2078 5.66642 40.8274V14.1646H48.9935V29.5457C48.9935 30.0058 49.3665 30.3789 49.8267 30.3789C50.2868 30.3789 50.6599 30.0058 50.6599 29.5457V8.33212C50.6599 6.03143 48.7945 4.16606 46.4938 4.16606H44.8274V3.33285C44.8274 2.87271 44.4543 2.49964 43.9942 2.49964C43.5341 2.49964 43.161 2.87271 43.161 3.33285V6.6657C43.161 7.58598 42.4148 8.33212 41.4946 8.33212C40.5743 8.33212 39.8281 7.58598 39.8281 6.6657V3.33285C39.8281 2.41257 40.5743 1.66642 41.4946 1.66642C41.9547 1.66642 42.3278 1.29335 42.3278 0.833212C42.3278 0.373074 41.9547 0 41.4946 0C39.654 0 38.1617 1.4923 38.1617 3.33285V4.16606H30.6628V3.33285C30.6628 2.87271 30.2897 2.49964 29.8296 2.49964C29.3694 2.49964 28.9964 2.87271 28.9964 3.33285V6.6657C28.9964 7.58598 28.2502 8.33212 27.3299 8.33212C26.4097 8.33212 25.6635 7.58598 25.6635 6.6657V3.33285C25.6635 2.41257 26.4097 1.66642 27.3299 1.66642C27.7901 1.66642 28.1632 1.29335 28.1632 0.833212C28.1632 0.373074 27.7901 0 27.3299 0C25.4894 0 23.9971 1.4923 23.9971 3.33285V4.16606H16.4982V3.33285C16.4982 2.87271 16.1251 2.49964 15.665 2.49964C15.2048 2.49964 14.8318 2.87271 14.8318 3.33285V6.6657C14.8318 7.58598 14.0856 8.33212 13.1653 8.33212C12.2451 8.33212 11.4989 7.58598 11.4989 6.6657V3.33285C11.4989 2.41257 12.2451 1.66642 13.1653 1.66642C13.6255 1.66642 13.9985 1.29335 13.9985 0.833212C13.9985 0.373074 13.6255 0 13.1653 0C11.3248 0 9.83249 1.4923 9.83249 3.33285V4.16606H8.16606C5.86537 4.16606 4 6.03143 4 8.33212V40.8274C4 43.1281 5.86537 44.9935 8.16606 44.9935H27.3299C31.7043 44.9935 31.7043 44.9935 31.7043 44.1603C31.7055 43.9389 31.6185 43.7257 31.4626 43.5687C31.2975 43.4043 31.0709 43.3165 30.8377 43.327ZM8.16606 5.83249H9.83249V6.6657C9.83249 8.50625 11.3248 9.99855 13.1653 9.99855C15.0059 9.99855 16.4982 8.50625 16.4982 6.6657V5.83249H23.9971V6.6657C23.9971 8.50625 25.4894 9.99855 27.3299 9.99855C29.1705 9.99855 30.6628 8.50625 30.6628 6.6657V5.83249H38.1617V6.6657C38.1617 8.50625 39.654 9.99855 41.4946 9.99855C43.3351 9.99855 44.8274 8.50625 44.8274 6.6657V5.83249H46.4938C47.8742 5.83249 48.9935 6.95171 48.9935 8.33212V12.4982H5.66642V8.33212C5.66642 6.95171 6.78565 5.83249 8.16606 5.83249Z" fill="#FFBB01"/>
</g>
<g filter="url(#filter2_d)">
<path d="M18.9979 17.4975C18.9979 17.0373 18.6248 16.6642 18.1647 16.6642H11.499C11.0388 16.6642 10.6658 17.0373 10.6658 17.4975V24.1632C10.6658 24.6233 11.0388 24.9964 11.499 24.9964H18.1647C18.6248 24.9964 18.9979 24.6233 18.9979 24.1632V17.4975ZM17.3315 23.3299H12.3322V18.3307H17.3315V23.3299Z" fill="#FFBB01"/>
</g>
<g filter="url(#filter3_d)">
<path d="M18.1647 29.9956C18.6248 29.9956 18.9979 29.6226 18.9979 29.1624C18.9979 28.7023 18.6248 28.3292 18.1647 28.3292H11.499C11.0388 28.3292 10.6658 28.7023 10.6658 29.1624V35.8281C10.6658 36.2883 11.0388 36.6613 11.499 36.6613H18.1647C18.6248 36.6613 18.9979 36.2883 18.9979 35.8281V32.4953C18.9979 32.0351 18.6248 31.6621 18.1647 31.6621C17.7045 31.6621 17.3315 32.0351 17.3315 32.4953V34.9949H12.3322V29.9956H18.1647Z" fill="#FFBB01"/>
</g>
<g filter="url(#filter4_d)">
<path d="M23.164 28.3292C22.7039 28.3292 22.3308 28.7023 22.3308 29.1624V35.8281C22.3308 36.2883 22.7039 36.6613 23.164 36.6613H29.8297C30.2898 36.6613 30.6629 36.2883 30.6629 35.8281V29.1624C30.6629 28.7023 30.2898 28.3292 29.8297 28.3292H23.164ZM28.9965 34.9949H23.9972V29.9956H28.9965V34.9949Z" fill="#FFBB01"/>
</g>
<g filter="url(#filter5_d)">
<path d="M41.4946 23.3299C41.9548 23.3299 42.3278 22.9569 42.3278 22.4967V17.4975C42.3278 17.0373 41.9548 16.6642 41.4946 16.6642H34.8289C34.3688 16.6642 33.9957 17.0373 33.9957 17.4975V24.1632C33.9957 24.6233 34.3688 24.9964 34.8289 24.9964C35.2891 24.9964 35.6621 24.6233 35.6621 24.1632V18.3307H40.6614V22.4967C40.6614 22.9569 41.0345 23.3299 41.4946 23.3299Z" fill="#FFBB01"/>
</g>
<g filter="url(#filter6_d)">
<path d="M30.4213 16.9059C30.2646 16.7481 30.0519 16.6594 29.8297 16.6594C29.6076 16.6594 29.3944 16.7481 29.2382 16.9059L26.4969 19.6553L23.7556 16.9059C23.4289 16.5792 22.8992 16.5792 22.5725 16.9059C22.2458 17.2326 22.2458 17.7623 22.5725 18.089L25.3219 20.8303L22.5725 23.5716C22.4146 23.7278 22.3259 23.941 22.3259 24.1632C22.3259 24.3853 22.4146 24.5985 22.5725 24.7547C22.7287 24.9126 22.9419 25.0012 23.164 25.0012C23.3862 25.0012 23.5989 24.9126 23.7556 24.7547L26.4969 22.0053L29.2382 24.7547C29.3944 24.9126 29.6076 25.0012 29.8297 25.0012C30.0519 25.0012 30.2646 24.9126 30.4213 24.7547C30.5791 24.5985 30.6678 24.3853 30.6678 24.1632C30.6678 23.941 30.5791 23.7278 30.4213 23.5716L27.6718 20.8303L30.4213 18.089C30.5791 17.9328 30.6678 17.7196 30.6678 17.4975C30.6678 17.2753 30.5791 17.0621 30.4213 16.9059V16.9059Z" fill="#FFBB01"/>
</g>
<defs>
<filter id="filter0_d" x="29.1615" y="22.4968" width="27.9991" height="35.5033" filterUnits="userSpaceOnUse" color-interpolation-filters="sRGB">
<feFlood flood-opacity="0" result="BackgroundImageFix"/>
<feColorMatrix in="SourceAlpha" type="matrix" values="0 0 0 0 0 0 0 0 0 0 0 0 0 0 0 0 0 0 127 0"/>
<feOffset dy="4"/>
<feGaussianBlur stdDeviation="2"/>
<feColorMatrix type="matrix" values="0 0 0 0 0 0 0 0 0 0 0 0 0 0 0 0 0 0 0.25 0"/>
<feBlend mode="normal" in2="BackgroundImageFix" result="effect1_dropShadow"/>
<feBlend mode="normal" in="SourceGraphic" in2="effect1_dropShadow" result="shape"/>
</filter>
<filter id="filter1_d" x="0" y="0" width="54.6599" height="52.9935" filterUnits="userSpaceOnUse" color-interpolation-filters="sRGB">
<feFlood flood-opacity="0" result="BackgroundImageFix"/>
<feColorMatrix in="SourceAlpha" type="matrix" values="0 0 0 0 0 0 0 0 0 0 0 0 0 0 0 0 0 0 127 0"/>
<feOffset dy="4"/>
<feGaussianBlur stdDeviation="2"/>
<feColorMatrix type="matrix" values="0 0 0 0 0 0 0 0 0 0 0 0 0 0 0 0 0 0 0.25 0"/>
<feBlend mode="normal" in2="BackgroundImageFix" result="effect1_dropShadow"/>
<feBlend mode="normal" in="SourceGraphic" in2="effect1_dropShadow" result="shape"/>
</filter>
<filter id="filter2_d" x="6.66577" y="16.6642" width="16.3321" height="16.3321" filterUnits="userSpaceOnUse" color-interpolation-filters="sRGB">
<feFlood flood-opacity="0" result="BackgroundImageFix"/>
<feColorMatrix in="SourceAlpha" type="matrix" values="0 0 0 0 0 0 0 0 0 0 0 0 0 0 0 0 0 0 127 0"/>
<feOffset dy="4"/>
<feGaussianBlur stdDeviation="2"/>
<feColorMatrix type="matrix" values="0 0 0 0 0 0 0 0 0 0 0 0 0 0 0 0 0 0 0.25 0"/>
<feBlend mode="normal" in2="BackgroundImageFix" result="effect1_dropShadow"/>
<feBlend mode="normal" in="SourceGraphic" in2="effect1_dropShadow" result="shape"/>
</filter>
<filter id="filter3_d" x="6.66577" y="28.3292" width="16.3321" height="16.3321" filterUnits="userSpaceOnUse" color-interpolation-filters="sRGB">
<feFlood flood-opacity="0" result="BackgroundImageFix"/>
<feColorMatrix in="SourceAlpha" type="matrix" values="0 0 0 0 0 0 0 0 0 0 0 0 0 0 0 0 0 0 127 0"/>
<feOffset dy="4"/>
<feGaussianBlur stdDeviation="2"/>
<feColorMatrix type="matrix" values="0 0 0 0 0 0 0 0 0 0 0 0 0 0 0 0 0 0 0.25 0"/>
<feBlend mode="normal" in2="BackgroundImageFix" result="effect1_dropShadow"/>
<feBlend mode="normal" in="SourceGraphic" in2="effect1_dropShadow" result="shape"/>
</filter>
<filter id="filter4_d" x="18.3308" y="28.3292" width="16.3321" height="16.3321" filterUnits="userSpaceOnUse" color-interpolation-filters="sRGB">
<feFlood flood-opacity="0" result="BackgroundImageFix"/>
<feColorMatrix in="SourceAlpha" type="matrix" values="0 0 0 0 0 0 0 0 0 0 0 0 0 0 0 0 0 0 127 0"/>
<feOffset dy="4"/>
<feGaussianBlur stdDeviation="2"/>
<feColorMatrix type="matrix" values="0 0 0 0 0 0 0 0 0 0 0 0 0 0 0 0 0 0 0.25 0"/>
<feBlend mode="normal" in2="BackgroundImageFix" result="effect1_dropShadow"/>
<feBlend mode="normal" in="SourceGraphic" in2="effect1_dropShadow" result="shape"/>
</filter>
<filter id="filter5_d" x="29.9957" y="16.6642" width="16.3321" height="16.3321" filterUnits="userSpaceOnUse" color-interpolation-filters="sRGB">
<feFlood flood-opacity="0" result="BackgroundImageFix"/>
<feColorMatrix in="SourceAlpha" type="matrix" values="0 0 0 0 0 0 0 0 0 0 0 0 0 0 0 0 0 0 127 0"/>
<feOffset dy="4"/>
<feGaussianBlur stdDeviation="2"/>
<feColorMatrix type="matrix" values="0 0 0 0 0 0 0 0 0 0 0 0 0 0 0 0 0 0 0.25 0"/>
<feBlend mode="normal" in2="BackgroundImageFix" result="effect1_dropShadow"/>
<feBlend mode="normal" in="SourceGraphic" in2="effect1_dropShadow" result="shape"/>
</filter>
<filter id="filter6_d" x="18.3259" y="16.6594" width="16.3419" height="16.3419" filterUnits="userSpaceOnUse" color-interpolation-filters="sRGB">
<feFlood flood-opacity="0" result="BackgroundImageFix"/>
<feColorMatrix in="SourceAlpha" type="matrix" values="0 0 0 0 0 0 0 0 0 0 0 0 0 0 0 0 0 0 127 0"/>
<feOffset dy="4"/>
<feGaussianBlur stdDeviation="2"/>
<feColorMatrix type="matrix" values="0 0 0 0 0 0 0 0 0 0 0 0 0 0 0 0 0 0 0.25 0"/>
<feBlend mode="normal" in2="BackgroundImageFix" result="effect1_dropShadow"/>
<feBlend mode="normal" in="SourceGraphic" in2="effect1_dropShadow" result="shape"/>
</filter>
</defs>
</svg>
