<svg width="58" height="58" viewBox="0 0 58 58" fill="none" xmlns="http://www.w3.org/2000/svg">
<g filter="url(#filter0_d)">
<path d="M53.9035 11.8519C53.7314 11.212 53.3116 10.6664 52.7371 10.3357C52.1623 10.0033 51.4788 9.91339 50.8376 10.0855C50.1973 10.258 49.6517 10.6774 49.3209 11.2519L48.9043 11.9768C48.5085 11.7494 48.0028 11.8833 47.7713 12.2771L45.655 15.8845L44.93 15.4679C44.738 15.3568 44.5093 15.3267 44.2953 15.3845C44.0809 15.4426 43.8987 15.5834 43.7884 15.7762C43.5626 16.1745 43.7002 16.6806 44.0968 16.9093L44.8218 17.3259L37.7397 29.5988L35.9899 34.2733L35.1567 35.831C34.6689 36.6797 34.721 37.7346 35.2901 38.5307L33.4154 40.8302L32.8906 39.5141C32.6539 38.9274 32.1059 38.5255 31.4757 38.4762C30.8451 38.4266 30.2409 38.7382 29.9159 39.2805L29.616 39.7887L29.3329 36.4559C29.2678 35.6675 28.6571 35.0336 27.872 34.9384C27.0864 34.8436 26.3427 35.3143 26.0917 36.0645L24.042 42.2134C23.8988 42.6483 24.1332 43.117 24.5669 43.2634C24.6482 43.3013 24.7357 43.324 24.8252 43.3297C25.1832 43.331 25.5022 43.1027 25.6169 42.7634L27.658 36.6146L27.9497 39.997C28.0099 40.7187 28.5286 41.3188 29.234 41.4823C29.9395 41.6459 30.6693 41.335 31.0408 40.7138L31.3491 40.2053L31.8658 41.5136C32.0851 42.0649 32.581 42.4583 33.1681 42.5458C33.7552 42.6332 34.3442 42.4018 34.7153 41.9384L36.6567 39.4807C36.8715 39.5368 37.0928 39.5649 37.3149 39.5641C38.2079 39.571 39.037 39.1007 39.4894 38.3306L40.3226 36.9392L43.4971 33.0816L50.6541 20.6586L51.3791 21.0752C51.5723 21.1859 51.7131 21.3686 51.7705 21.5838C51.8282 21.7974 51.7981 22.0252 51.6875 22.2168L48.3547 27.991C48.229 28.1805 48.1863 28.4133 48.2367 28.6354C48.2872 28.8571 48.4259 29.0487 48.6212 29.1655C48.8132 29.277 49.0419 29.3071 49.2558 29.2493C49.4702 29.1911 49.6525 29.0504 49.7628 28.8575L53.0955 23.0833C53.4279 22.5085 53.5178 21.825 53.3453 21.1839C53.1728 20.5435 52.7534 19.9979 52.1789 19.6672L51.454 19.2506L53.5369 15.6428C53.7644 15.247 53.6305 14.7417 53.2371 14.5098L53.6537 13.7848C53.995 13.201 54.0853 12.5037 53.9035 11.8519V11.8519ZM50.7623 12.0851C50.8726 11.8922 51.0557 11.751 51.2709 11.6937C51.4849 11.6408 51.7111 11.6705 51.9039 11.7771C52.0972 11.8873 52.2379 12.0704 52.2957 12.2852C52.3486 12.4992 52.3189 12.7254 52.2123 12.9182L51.7957 13.6432L50.3458 12.81L50.7623 12.0851ZM39.406 35.3481L38.9894 35.1064L37.7563 34.3896L38.9394 31.2236L41.5639 32.7399L39.406 35.3481ZM36.9065 37.7557C36.5546 37.5104 36.4463 37.0385 36.6567 36.6642L37.0733 35.9396L38.5228 36.7728L38.1062 37.4893C37.9895 37.6919 37.7934 37.8359 37.5651 37.8867C37.3369 37.9372 37.0981 37.89 36.9065 37.7557ZM42.5138 31.3738L39.631 29.7074L46.2966 18.1591L49.1794 19.8254L42.5138 31.3738ZM50.0126 18.384L47.1297 16.7177L48.7961 13.8348L51.6789 15.5012L50.0126 18.384Z" fill="#FFBB01"/>
</g>
<path d="M17.1476 37.3436L14.1985 40.285L12.432 38.5186C12.107 38.1955 11.5822 38.1955 11.2571 38.5186C11.0992 38.6752 11.0106 38.888 11.0106 39.1101C11.0106 39.3322 11.0992 39.5454 11.2571 39.7016L13.0236 41.4681C13.336 41.7781 13.7583 41.9518 14.1985 41.9514C14.6411 41.9538 15.0671 41.7801 15.3816 41.4681L18.3225 38.5186C18.6057 38.1878 18.5866 37.6951 18.279 37.3876C17.971 37.0796 17.4784 37.0605 17.1476 37.3436Z" fill="#FFBB01"/>
<path d="M7.33282 39.585C7.33282 43.4966 10.5037 46.6671 14.415 46.6671C18.3262 46.6671 21.4971 43.4966 21.4971 39.585C21.4971 39.1248 21.124 38.7518 20.6639 38.7518C20.2038 38.7518 19.8307 39.1248 19.8307 39.585C19.8307 42.576 17.406 45.0007 14.415 45.0007C11.4239 45.0007 8.99921 42.576 8.99921 39.585C8.99921 36.5939 11.4239 34.1692 14.415 34.1692C15.5874 34.166 16.7286 34.5463 17.6643 35.2526C18.0325 35.5288 18.5549 35.454 18.8307 35.0858C19.1069 34.7176 19.0325 34.1957 18.6643 33.9194C16.5183 32.31 13.6469 32.0512 11.2478 33.2506C8.84827 34.4503 7.33282 36.9027 7.33282 39.585Z" fill="#FFBB01"/>
<g filter="url(#filter1_d)">
<path d="M33.9948 6.67383C34.455 6.67383 34.828 6.30117 34.828 5.84064C34.828 5.38051 34.455 5.00745 33.9948 5.00745H12.3318C11.8717 5.00745 11.4987 5.38051 11.4987 5.84064V9.1734C11.4987 9.63394 11.8717 10.0066 12.3318 10.0066H33.9948C34.455 10.0066 34.828 9.63394 34.828 9.1734C34.828 8.71328 34.455 8.34021 33.9948 8.34021H13.165V6.67383H33.9948Z" fill="#FFBB01"/>
</g>
<g filter="url(#filter2_d)">
<path d="M14.8315 11.673C14.3714 11.673 13.9983 12.0461 13.9983 12.5062C13.9983 12.9668 14.3714 13.3394 14.8315 13.3394H31.4953C31.9554 13.3394 32.3285 12.9668 32.3285 12.5062C32.3285 12.0461 31.9554 11.673 31.4953 11.673H14.8315Z" fill="#FFBB01"/>
</g>
<g filter="url(#filter3_d)">
<path d="M36.4945 17.5053H18.1643C17.7042 17.5053 17.3311 17.8784 17.3311 18.3385C17.3311 18.799 17.7042 19.1717 18.1643 19.1717H36.4945C36.9546 19.1717 37.3277 18.799 37.3277 18.3385C37.3277 17.8784 36.9546 17.5053 36.4945 17.5053Z" fill="#FFBB01"/>
</g>
<g filter="url(#filter4_d)">
<path d="M28.1625 23.3377C28.1625 22.8776 27.7895 22.5045 27.3294 22.5045H10.6655C10.2054 22.5045 9.83234 22.8776 9.83234 23.3377C9.83234 23.7982 10.2054 24.1709 10.6655 24.1709H27.3294C27.7895 24.1709 28.1625 23.7982 28.1625 23.3377Z" fill="#FFBB01"/>
</g>
<g filter="url(#filter5_d)">
<path d="M36.4944 22.5045H30.6621C30.202 22.5045 29.8289 22.8776 29.8289 23.3377C29.8289 23.7982 30.202 24.1709 30.6621 24.1709H36.4944C36.9546 24.1709 37.3276 23.7982 37.3276 23.3377C37.3276 22.8776 36.9546 22.5045 36.4944 22.5045Z" fill="#FFBB01"/>
</g>
<g filter="url(#filter6_d)">
<path d="M18.9974 28.3368C19.4576 28.3368 19.8306 27.9642 19.8306 27.5037C19.8306 27.0435 19.4576 26.6705 18.9974 26.6705H10.6655C10.2054 26.6705 9.83234 27.0435 9.83234 27.5037C9.83234 27.9642 10.2054 28.3368 10.6655 28.3368H18.9974Z" fill="#FFBB01"/>
</g>
<g filter="url(#filter7_d)">
<path d="M22.3301 28.3368H28.1625C28.6226 28.3368 28.9957 27.9642 28.9957 27.5037C28.9957 27.0435 28.6226 26.6705 28.1625 26.6705H22.3301C21.87 26.6705 21.4969 27.0435 21.4969 27.5037C21.4969 27.9642 21.87 28.3368 22.3301 28.3368Z" fill="#FFBB01"/>
</g>
<g filter="url(#filter8_d)">
<path d="M41.4936 38.3352C41.0335 38.3352 40.6604 38.7082 40.6604 39.1684V47.5003C40.6604 47.9608 40.2874 48.3335 39.8272 48.3335H6.49957C6.03945 48.3335 5.66638 47.9608 5.66638 47.5003V2.50794C5.66638 2.04781 6.03945 1.67474 6.49957 1.67474H39.8272C40.2874 1.67474 40.6604 2.04781 40.6604 2.50794V18.1555C40.6604 18.6156 41.0335 18.9887 41.4936 18.9887C41.9537 18.9887 42.3268 18.6156 42.3268 18.1555V2.50794C42.3268 1.12756 41.2076 0.00836182 39.8272 0.00836182H6.49957C5.11919 0.00836182 4 1.12756 4 2.50794V47.5003C4 48.8811 5.11919 49.9998 6.49957 49.9998H39.8272C41.2076 49.9998 42.3268 48.8811 42.3268 47.5003V39.1684C42.3268 38.7082 41.9537 38.3352 41.4936 38.3352Z" fill="#FFBB01"/>
</g>
<defs>
<filter id="filter0_d" x="20" y="10" width="37.9954" height="41.3297" filterUnits="userSpaceOnUse" color-interpolation-filters="sRGB">
<feFlood flood-opacity="0" result="BackgroundImageFix"/>
<feColorMatrix in="SourceAlpha" type="matrix" values="0 0 0 0 0 0 0 0 0 0 0 0 0 0 0 0 0 0 127 0"/>
<feOffset dy="4"/>
<feGaussianBlur stdDeviation="2"/>
<feColorMatrix type="matrix" values="0 0 0 0 0 0 0 0 0 0 0 0 0 0 0 0 0 0 0.25 0"/>
<feBlend mode="normal" in2="BackgroundImageFix" result="effect1_dropShadow"/>
<feBlend mode="normal" in="SourceGraphic" in2="effect1_dropShadow" result="shape"/>
</filter>
<filter id="filter1_d" x="7.49866" y="5.00745" width="31.3294" height="12.9991" filterUnits="userSpaceOnUse" color-interpolation-filters="sRGB">
<feFlood flood-opacity="0" result="BackgroundImageFix"/>
<feColorMatrix in="SourceAlpha" type="matrix" values="0 0 0 0 0 0 0 0 0 0 0 0 0 0 0 0 0 0 127 0"/>
<feOffset dy="4"/>
<feGaussianBlur stdDeviation="2"/>
<feColorMatrix type="matrix" values="0 0 0 0 0 0 0 0 0 0 0 0 0 0 0 0 0 0 0.25 0"/>
<feBlend mode="normal" in2="BackgroundImageFix" result="effect1_dropShadow"/>
<feBlend mode="normal" in="SourceGraphic" in2="effect1_dropShadow" result="shape"/>
</filter>
<filter id="filter2_d" x="9.99829" y="11.673" width="26.3302" height="9.66637" filterUnits="userSpaceOnUse" color-interpolation-filters="sRGB">
<feFlood flood-opacity="0" result="BackgroundImageFix"/>
<feColorMatrix in="SourceAlpha" type="matrix" values="0 0 0 0 0 0 0 0 0 0 0 0 0 0 0 0 0 0 127 0"/>
<feOffset dy="4"/>
<feGaussianBlur stdDeviation="2"/>
<feColorMatrix type="matrix" values="0 0 0 0 0 0 0 0 0 0 0 0 0 0 0 0 0 0 0.25 0"/>
<feBlend mode="normal" in2="BackgroundImageFix" result="effect1_dropShadow"/>
<feBlend mode="normal" in="SourceGraphic" in2="effect1_dropShadow" result="shape"/>
</filter>
<filter id="filter3_d" x="13.3311" y="17.5053" width="27.9966" height="9.66639" filterUnits="userSpaceOnUse" color-interpolation-filters="sRGB">
<feFlood flood-opacity="0" result="BackgroundImageFix"/>
<feColorMatrix in="SourceAlpha" type="matrix" values="0 0 0 0 0 0 0 0 0 0 0 0 0 0 0 0 0 0 127 0"/>
<feOffset dy="4"/>
<feGaussianBlur stdDeviation="2"/>
<feColorMatrix type="matrix" values="0 0 0 0 0 0 0 0 0 0 0 0 0 0 0 0 0 0 0.25 0"/>
<feBlend mode="normal" in2="BackgroundImageFix" result="effect1_dropShadow"/>
<feBlend mode="normal" in="SourceGraphic" in2="effect1_dropShadow" result="shape"/>
</filter>
<filter id="filter4_d" x="5.83234" y="22.5045" width="26.3302" height="9.66639" filterUnits="userSpaceOnUse" color-interpolation-filters="sRGB">
<feFlood flood-opacity="0" result="BackgroundImageFix"/>
<feColorMatrix in="SourceAlpha" type="matrix" values="0 0 0 0 0 0 0 0 0 0 0 0 0 0 0 0 0 0 127 0"/>
<feOffset dy="4"/>
<feGaussianBlur stdDeviation="2"/>
<feColorMatrix type="matrix" values="0 0 0 0 0 0 0 0 0 0 0 0 0 0 0 0 0 0 0.25 0"/>
<feBlend mode="normal" in2="BackgroundImageFix" result="effect1_dropShadow"/>
<feBlend mode="normal" in="SourceGraphic" in2="effect1_dropShadow" result="shape"/>
</filter>
<filter id="filter5_d" x="25.8289" y="22.5045" width="15.4987" height="9.66639" filterUnits="userSpaceOnUse" color-interpolation-filters="sRGB">
<feFlood flood-opacity="0" result="BackgroundImageFix"/>
<feColorMatrix in="SourceAlpha" type="matrix" values="0 0 0 0 0 0 0 0 0 0 0 0 0 0 0 0 0 0 127 0"/>
<feOffset dy="4"/>
<feGaussianBlur stdDeviation="2"/>
<feColorMatrix type="matrix" values="0 0 0 0 0 0 0 0 0 0 0 0 0 0 0 0 0 0 0.25 0"/>
<feBlend mode="normal" in2="BackgroundImageFix" result="effect1_dropShadow"/>
<feBlend mode="normal" in="SourceGraphic" in2="effect1_dropShadow" result="shape"/>
</filter>
<filter id="filter6_d" x="5.83234" y="26.6705" width="17.9983" height="9.66637" filterUnits="userSpaceOnUse" color-interpolation-filters="sRGB">
<feFlood flood-opacity="0" result="BackgroundImageFix"/>
<feColorMatrix in="SourceAlpha" type="matrix" values="0 0 0 0 0 0 0 0 0 0 0 0 0 0 0 0 0 0 127 0"/>
<feOffset dy="4"/>
<feGaussianBlur stdDeviation="2"/>
<feColorMatrix type="matrix" values="0 0 0 0 0 0 0 0 0 0 0 0 0 0 0 0 0 0 0.25 0"/>
<feBlend mode="normal" in2="BackgroundImageFix" result="effect1_dropShadow"/>
<feBlend mode="normal" in="SourceGraphic" in2="effect1_dropShadow" result="shape"/>
</filter>
<filter id="filter7_d" x="17.4969" y="26.6705" width="15.4987" height="9.66637" filterUnits="userSpaceOnUse" color-interpolation-filters="sRGB">
<feFlood flood-opacity="0" result="BackgroundImageFix"/>
<feColorMatrix in="SourceAlpha" type="matrix" values="0 0 0 0 0 0 0 0 0 0 0 0 0 0 0 0 0 0 127 0"/>
<feOffset dy="4"/>
<feGaussianBlur stdDeviation="2"/>
<feColorMatrix type="matrix" values="0 0 0 0 0 0 0 0 0 0 0 0 0 0 0 0 0 0 0.25 0"/>
<feBlend mode="normal" in2="BackgroundImageFix" result="effect1_dropShadow"/>
<feBlend mode="normal" in="SourceGraphic" in2="effect1_dropShadow" result="shape"/>
</filter>
<filter id="filter8_d" x="0" y="0.00836182" width="46.3268" height="57.9915" filterUnits="userSpaceOnUse" color-interpolation-filters="sRGB">
<feFlood flood-opacity="0" result="BackgroundImageFix"/>
<feColorMatrix in="SourceAlpha" type="matrix" values="0 0 0 0 0 0 0 0 0 0 0 0 0 0 0 0 0 0 127 0"/>
<feOffset dy="4"/>
<feGaussianBlur stdDeviation="2"/>
<feColorMatrix type="matrix" values="0 0 0 0 0 0 0 0 0 0 0 0 0 0 0 0 0 0 0.25 0"/>
<feBlend mode="normal" in2="BackgroundImageFix" result="effect1_dropShadow"/>
<feBlend mode="normal" in="SourceGraphic" in2="effect1_dropShadow" result="shape"/>
</filter>
</defs>
</svg>
