<svg width="58" height="58" viewBox="0 0 58 58" fill="none" xmlns="http://www.w3.org/2000/svg">
<g filter="url(#filter0_d)">
<path d="M52.3277 35.6352V33.3352H53.1609C53.3908 33.3369 53.6109 33.2433 53.7692 33.0769C53.9107 32.9186 53.9909 32.7144 53.9941 32.502L52.5026 4.17195C52.3606 1.87892 50.459 0.0916138 48.1615 0.0916138C45.864 0.0916138 43.9624 1.87892 43.8204 4.17195L42.3288 32.502C42.3219 32.729 42.4025 32.9495 42.5538 33.1188C42.719 33.2697 42.9383 33.3478 43.1621 33.3352H43.9953V35.6352L42.4204 38.7932C42.3016 39.0287 42.3016 39.307 42.4204 39.543L47.4198 49.5418C47.4605 49.6338 47.5203 49.716 47.5947 49.7835C47.692 49.8734 47.8092 49.9393 47.9365 49.9751H48.3946C48.5224 49.9393 48.6395 49.8734 48.7364 49.7835C48.8112 49.716 48.8706 49.6338 48.9113 49.5418L53.9107 39.543C54.0295 39.307 54.0295 39.0287 53.9107 38.7932L52.3277 35.6352ZM44.0368 31.6688L44.3871 25.0029H51.9359L52.3277 31.6688H44.0368ZM45.4868 4.21386C45.4868 2.73657 46.6842 1.53879 48.1615 1.53879C49.6388 1.53879 50.8362 2.73657 50.8362 4.21386L51.8443 23.3783H44.4787L44.5702 21.7118H49.2112C49.6717 21.7118 50.0444 21.3387 50.0444 20.8786C50.0444 20.418 49.6717 20.0454 49.2112 20.0454H44.6536L45.4868 4.21386ZM50.6612 33.3352V35.0017H45.6618V33.3352H50.6612ZM48.9947 45.634V40.0011H49.828C50.2881 40.0011 50.6612 39.628 50.6612 39.1679C50.6612 38.7077 50.2881 38.3347 49.828 38.3347H46.495C46.0349 38.3347 45.6618 38.7077 45.6618 39.1679C45.6618 39.628 46.0349 40.0011 46.495 40.0011H47.3283V45.634L44.0954 39.1679L45.3453 36.6682H50.9777L52.2276 39.1679L48.9947 45.634Z" fill="#FFBB01"/>
<path d="M32.3301 10.8379C32.7902 10.8379 33.1633 10.4648 33.1633 10.0046C33.1633 9.54447 32.7902 9.17139 32.3301 9.17139H10.6659C10.2058 9.17139 9.8327 9.54447 9.8327 10.0046V13.3376C9.8327 13.7977 10.2058 14.1708 10.6659 14.1708H32.3301C32.7902 14.1708 33.1633 13.7977 33.1633 13.3376C33.1633 12.8774 32.7902 12.5043 32.3301 12.5043H11.4992V10.8379H32.3301Z" fill="#FFBB01"/>
<path d="M33.1633 18.337C33.1633 17.8768 32.7902 17.5037 32.3301 17.5037H13.9989C13.5387 17.5037 13.1656 17.8768 13.1656 18.337C13.1656 18.7971 13.5387 19.1702 13.9989 19.1702H32.3301C32.7902 19.1702 33.1633 18.7971 33.1633 18.337Z" fill="#FFBB01"/>
<path d="M8.99945 22.5031C8.99945 22.9633 9.37254 23.3363 9.83269 23.3363H23.1645C23.6246 23.3363 23.9977 22.9633 23.9977 22.5031C23.9977 22.0429 23.6246 21.6699 23.1645 21.6699H9.83269C9.37254 21.6699 8.99945 22.0429 8.99945 22.5031Z" fill="#FFBB01"/>
<path d="M28.1639 21.6699C27.7038 21.6699 27.3307 22.0429 27.3307 22.5031C27.3307 22.9633 27.7038 23.3363 28.1639 23.3363H31.4969C31.957 23.3363 32.3301 22.9633 32.3301 22.5031C32.3301 22.0429 31.957 21.6699 31.4969 21.6699H28.1639Z" fill="#FFBB01"/>
<path d="M20.6648 26.6693C20.6648 26.2091 20.2917 25.8361 19.8315 25.8361H9.83269C9.37254 25.8361 8.99945 26.2091 8.99945 26.6693C8.99945 27.1294 9.37254 27.5025 9.83269 27.5025H19.8315C20.2917 27.5025 20.6648 27.1294 20.6648 26.6693Z" fill="#FFBB01"/>
<path d="M19.8315 30.8356C19.8315 30.3754 19.4584 30.0023 18.9983 30.0023H9.83269C9.37254 30.0023 8.99945 30.3754 8.99945 30.8356C8.99945 31.2957 9.37254 31.6688 9.83269 31.6688H18.9983C19.4584 31.6688 19.8315 31.2957 19.8315 30.8356Z" fill="#FFBB01"/>
<path d="M9.83269 34.1685C9.37254 34.1685 8.99945 34.5415 8.99945 35.0017C8.99945 35.4618 9.37254 35.8349 9.83269 35.8349H15.6653C16.1255 35.8349 16.4986 35.4618 16.4986 35.0017C16.4986 34.5415 16.1255 34.1685 15.6653 34.1685H9.83269Z" fill="#FFBB01"/>
<path d="M36.4962 0.0057373H6.49971C5.11925 0.0057373 4 1.12499 4 2.50545V40.8343C4 42.2148 5.11925 43.334 6.49971 43.334H20.6647C21.1249 43.334 21.498 42.961 21.498 42.5008C21.498 42.0407 21.1249 41.6676 20.6647 41.6676H6.49971C6.03956 41.6676 5.66647 41.2945 5.66647 40.8343V7.50487H37.3295V40.8343C37.3295 41.2945 36.9564 41.6676 36.4962 41.6676H33.9965C33.5364 41.6676 33.1633 42.0407 33.1633 42.5008C33.1633 42.961 33.5364 43.334 33.9965 43.334H36.4962C37.8767 43.334 38.9959 42.2148 38.9959 40.8343V2.50545C38.9959 1.12499 37.8767 0.0057373 36.4962 0.0057373V0.0057373ZM5.66647 5.83839V2.50545C5.66647 2.0453 6.03956 1.67221 6.49971 1.67221H36.4962C36.9564 1.67221 37.3295 2.0453 37.3295 2.50545V5.83839H5.66647Z" fill="#FFBB01"/>
<path d="M27.3306 30.8354C25.9501 30.8354 24.8309 31.9547 24.8309 33.3352C24.8309 34.7156 25.9501 35.8349 27.3306 35.8349C28.711 35.8349 29.8303 34.7156 29.8303 33.3352C29.8303 31.9547 28.711 30.8354 27.3306 30.8354ZM27.3306 34.1684C26.8704 34.1684 26.4973 33.7953 26.4973 33.3352C26.4973 32.875 26.8704 32.5019 27.3306 32.5019C27.7907 32.5019 28.1638 32.875 28.1638 33.3352C28.1638 33.7953 27.7907 34.1684 27.3306 34.1684Z" fill="#FFBB01"/>
<path d="M33.9965 33.3352C33.9953 32.4092 33.4826 31.5592 32.6632 31.1272C32.9358 30.2419 32.6966 29.2788 32.042 28.6238C31.3869 27.9692 30.4239 27.7299 29.5386 28.0025C29.1049 27.1856 28.2558 26.6746 27.3306 26.6746C26.4054 26.6746 25.5563 27.1856 25.1226 28.0025C24.2373 27.7299 23.2743 27.9692 22.6192 28.6238C21.9646 29.2788 21.7254 30.2419 21.998 31.1272C21.1806 31.5609 20.67 32.41 20.67 33.3352C20.67 34.2604 21.1806 35.1099 21.998 35.5432C21.7254 36.4264 21.9626 37.3878 22.6143 38.0429C22.7771 38.2052 22.9622 38.3427 23.1644 38.4514V49.1667C23.166 49.5031 23.3699 49.8054 23.6811 49.9332C23.9911 50.0638 24.3496 49.9946 24.5892 49.7582L27.3306 47.0087L30.072 49.7582C30.229 49.9145 30.4422 50.0011 30.6635 49.9999C30.773 50.0028 30.8812 49.98 30.9801 49.9332C31.2913 49.8054 31.4951 49.5031 31.4968 49.1667V38.4595C31.699 38.3509 31.8841 38.2133 32.0468 38.0514C32.6986 37.396 32.9358 36.435 32.6632 35.5517C33.4851 35.118 33.9985 34.2644 33.9965 33.3352V33.3352ZM27.9222 45.2422C27.7659 45.0843 27.5527 44.9956 27.3306 44.9956C27.1084 44.9956 26.8953 45.0843 26.739 45.2422L24.8309 47.1584V38.7431L25.1226 38.6678C25.5563 39.4852 26.4054 39.9958 27.3306 39.9958C28.2558 39.9958 29.1049 39.4852 29.5386 38.6678L29.8303 38.7431V47.1584L27.9222 45.2422ZM31.4968 34.1684H31.3552C31.0159 34.1668 30.7091 34.371 30.5801 34.6851C30.452 34.9972 30.5244 35.3556 30.7636 35.5932L30.8637 35.6933C31.1867 36.0184 31.1867 36.5432 30.8637 36.8683C30.7718 36.9647 30.657 37.0363 30.5301 37.0766H30.4052C30.1428 37.1173 29.8767 37.0306 29.6887 36.8431L29.5886 36.743C29.3502 36.5029 28.9901 36.4305 28.6777 36.5603C28.3648 36.6901 28.1618 36.9964 28.1638 37.3349V37.5014C28.1638 37.9615 27.7907 38.3346 27.3306 38.3346C26.8704 38.3346 26.4974 37.9615 26.4974 37.5014V37.3598C26.499 37.0205 26.2947 36.7137 25.9806 36.5847C25.8802 36.5448 25.7723 36.5253 25.6641 36.5265C25.4428 36.5253 25.2296 36.6124 25.0725 36.7682L24.9725 36.8683C24.7845 37.0558 24.5184 37.1425 24.256 37.1014H24.1311C24.0042 37.0615 23.8894 36.9899 23.7975 36.8931C23.4744 36.568 23.4744 36.0432 23.7975 35.7181L23.9061 35.6184C24.1453 35.3804 24.2177 35.022 24.0892 34.7099C23.9602 34.3962 23.6538 34.1916 23.3145 34.1936H23.1644C22.7043 34.1936 22.3312 33.8205 22.3312 33.3604C22.3312 32.8998 22.7043 32.5272 23.1644 32.5272H23.306C23.6453 32.5288 23.9521 32.3241 24.081 32.0105C24.2092 31.6984 24.1368 31.34 23.8976 31.1019L23.7975 31.0023C23.4708 30.6776 23.4691 30.1499 23.7934 29.8232C24.1181 29.4965 24.6458 29.4945 24.9725 29.8191L25.0725 29.9274C25.3102 30.1666 25.669 30.239 25.9806 30.1104C26.2947 29.9815 26.499 29.6751 26.4974 29.3358V29.169C26.4974 28.7088 26.8704 28.3357 27.3306 28.3357C27.7907 28.3357 28.1638 28.7088 28.1638 29.169V29.3106C28.1622 29.6503 28.3664 29.9567 28.6805 30.0856C28.9922 30.2138 29.351 30.1418 29.5886 29.9021L29.6887 29.8025C30.013 29.4758 30.5411 29.4737 30.8678 29.798C31.1945 30.1226 31.1961 30.6503 30.8718 30.977L30.7636 31.0771C30.5244 31.3147 30.452 31.6736 30.5801 31.9852C30.7091 32.2993 31.0159 32.5036 31.3552 32.5019H31.4968C31.9569 32.5019 32.33 32.875 32.33 33.3352C32.33 33.7953 31.9569 34.1684 31.4968 34.1684V34.1684Z" fill="#FFBB01"/>
</g>
<defs>
<filter id="filter0_d" x="0" y="0.0057373" width="57.9998" height="57.9944" filterUnits="userSpaceOnUse" color-interpolation-filters="sRGB">
<feFlood flood-opacity="0" result="BackgroundImageFix"/>
<feColorMatrix in="SourceAlpha" type="matrix" values="0 0 0 0 0 0 0 0 0 0 0 0 0 0 0 0 0 0 127 0"/>
<feOffset dy="4"/>
<feGaussianBlur stdDeviation="2"/>
<feColorMatrix type="matrix" values="0 0 0 0 0 0 0 0 0 0 0 0 0 0 0 0 0 0 0.25 0"/>
<feBlend mode="normal" in2="BackgroundImageFix" result="effect1_dropShadow"/>
<feBlend mode="normal" in="SourceGraphic" in2="effect1_dropShadow" result="shape"/>
</filter>
</defs>
</svg>
