<svg width="58" height="58" viewBox="0 0 58 58" fill="none" xmlns="http://www.w3.org/2000/svg">
<g filter="url(#filter0_d)">
<path d="M53.1667 24.1667H34.1082C33.648 24.1667 33.2749 24.5398 33.2749 25C33.2749 25.4602 33.648 25.8334 34.1082 25.8334H52.3333V34.1667H48.1667V28.3334C48.1667 27.8731 47.7935 27.5 47.3333 27.5C46.8731 27.5 46.5 27.8731 46.5 28.3334V34.1667H24V25.8334H29C29.4602 25.8334 29.8333 25.4602 29.8333 25C29.8333 24.5398 29.4602 24.1667 29 24.1667H23.1667C22.7065 24.1667 22.3333 24.5398 22.3333 25V35C22.3333 35.4602 22.7065 35.8334 23.1667 35.8334H30.6667V37.5H23.1667C22.7065 37.5 22.3333 37.8731 22.3333 38.3334V44.1667H19.8333V43.3334C19.8333 42.8731 19.4602 42.5 19 42.5H16.5V38.3334C16.5 37.8731 16.1269 37.5 15.6667 37.5C15.2065 37.5 14.8333 37.8731 14.8333 38.3334V43.3334C14.8333 43.7936 15.2065 44.1667 15.6667 44.1667H18.1667V45.8334H9.83333V44.1667H12.3333C12.7935 44.1667 13.1667 43.7936 13.1667 43.3334V38.3334C13.1667 37.8731 12.7935 37.5 12.3333 37.5C11.8731 37.5 11.5 37.8731 11.5 38.3334V42.5H9C8.53979 42.5 8.16667 42.8731 8.16667 43.3334V44.1667H4.83333C4.37313 44.1667 4 44.5398 4 45C4 45.4602 4.37313 45.8334 4.83333 45.8334H8.16667V46.6667C8.16667 47.1269 8.53979 47.5 9 47.5H19C19.4602 47.5 19.8333 47.1269 19.8333 46.6667V45.8334H22.3333V48.3334C22.3333 48.7936 22.7065 49.1667 23.1667 49.1667H53.1667C53.6269 49.1667 54 48.7936 54 48.3334V38.3334C54 37.8731 53.6269 37.5 53.1667 37.5H45.6667V35.8334H53.1667C53.6269 35.8334 54 35.4602 54 35V25C54 24.5398 53.6269 24.1667 53.1667 24.1667ZM52.3333 47.5H24V39.1667H46.5V45C46.5 45.4602 46.8731 45.8334 47.3333 45.8334C47.7935 45.8334 48.1667 45.4602 48.1667 45V39.1667H52.3333V47.5ZM44 37.5H32.3333V35.8334H44V37.5Z" fill="#FFBB01"/>
<path d="M28.9999 27.5C27.6193 27.5 26.4999 28.6194 26.4999 30C26.4999 31.381 27.6193 32.5 28.9999 32.5C30.3805 32.5 31.4999 31.381 31.4999 30C31.4999 28.6194 30.3805 27.5 28.9999 27.5ZM28.9999 30.8333C28.5397 30.8333 28.1665 30.4602 28.1665 30C28.1665 29.5398 28.5397 29.1667 28.9999 29.1667C29.4601 29.1667 29.8332 29.5398 29.8332 30C29.8332 30.4602 29.4601 30.8333 28.9999 30.8333Z" fill="#FFBB01"/>
<path d="M34.0001 32.5C34.4603 32.5 34.8334 32.1269 34.8334 31.6667V28.3333C34.8334 27.8731 34.4603 27.5 34.0001 27.5C33.5399 27.5 33.1667 27.8731 33.1667 28.3333V31.6667C33.1667 32.1269 33.5399 32.5 34.0001 32.5Z" fill="#FFBB01"/>
<path d="M38.1667 31.6667V28.3333C38.1667 27.8731 37.7935 27.5 37.3333 27.5C36.8731 27.5 36.5 27.8731 36.5 28.3333V31.6667C36.5 32.1269 36.8731 32.5 37.3333 32.5C37.7935 32.5 38.1667 32.1269 38.1667 31.6667Z" fill="#FFBB01"/>
<path d="M41.4999 31.6667V28.3333C41.4999 27.8731 41.1268 27.5 40.6666 27.5C40.2064 27.5 39.8333 27.8731 39.8333 28.3333V31.6667C39.8333 32.1269 40.2064 32.5 40.6666 32.5C41.1268 32.5 41.4999 32.1269 41.4999 31.6667Z" fill="#FFBB01"/>
<path d="M44.8332 31.6667V28.3333C44.8332 27.8731 44.46 27.5 43.9998 27.5C43.5396 27.5 43.1665 27.8731 43.1665 28.3333V31.6667C43.1665 32.1269 43.5396 32.5 43.9998 32.5C44.46 32.5 44.8332 32.1269 44.8332 31.6667Z" fill="#FFBB01"/>
<path d="M30.6665 42.5C30.2063 42.5 29.8332 42.8732 29.8332 43.3334C29.8332 43.7936 29.4601 44.1667 28.9999 44.1667C28.5397 44.1667 28.1665 43.7936 28.1665 43.3334C28.1665 42.8732 28.5397 42.5 28.9999 42.5C29.4601 42.5 29.8332 42.1269 29.8332 41.6667C29.8332 41.2065 29.4601 40.8334 28.9999 40.8334C27.6193 40.8334 26.4999 41.9528 26.4999 43.3334C26.4999 44.7144 27.6193 45.8334 28.9999 45.8334C30.3805 45.8334 31.4999 44.7144 31.4999 43.3334C31.4999 42.8732 31.1267 42.5 30.6665 42.5Z" fill="#FFBB01"/>
<path d="M34.0001 40.8334C33.5399 40.8334 33.1667 41.2065 33.1667 41.6667V45C33.1667 45.4602 33.5399 45.8334 34.0001 45.8334C34.4603 45.8334 34.8334 45.4602 34.8334 45V41.6667C34.8334 41.2065 34.4603 40.8334 34.0001 40.8334Z" fill="#FFBB01"/>
<path d="M37.3333 40.8334C36.8731 40.8334 36.5 41.2065 36.5 41.6667V45C36.5 45.4602 36.8731 45.8334 37.3333 45.8334C37.7935 45.8334 38.1667 45.4602 38.1667 45V41.6667C38.1667 41.2065 37.7935 40.8334 37.3333 40.8334Z" fill="#FFBB01"/>
<path d="M40.6666 40.8334C40.2064 40.8334 39.8333 41.2065 39.8333 41.6667V45C39.8333 45.4602 40.2064 45.8334 40.6666 45.8334C41.1268 45.8334 41.4999 45.4602 41.4999 45V41.6667C41.4999 41.2065 41.1268 40.8334 40.6666 40.8334Z" fill="#FFBB01"/>
<path d="M43.9998 40.8334C43.5396 40.8334 43.1665 41.2065 43.1665 41.6667V45C43.1665 45.4602 43.5396 45.8334 43.9998 45.8334C44.46 45.8334 44.8332 45.4602 44.8332 45V41.6667C44.8332 41.2065 44.46 40.8334 43.9998 40.8334Z" fill="#FFBB01"/>
<path d="M10.3168 29.8418C10.427 29.8906 10.5462 29.9159 10.6667 29.9167C11.0528 29.911 11.3841 29.6404 11.4675 29.2636C11.5505 28.8864 11.3641 28.5019 11.0166 28.3334C7.09939 26.5382 4.96112 22.2572 5.8795 18.047C6.79747 13.8368 10.5243 10.8346 14.8334 10.8334C15.6789 10.833 16.5204 10.9506 17.3334 11.1833C17.7484 11.3034 18.1858 11.0861 18.3417 10.6837C20.4388 5.24422 25.6704 1.65942 31.5 1.66675C38.1398 1.6993 43.8771 6.31356 45.3334 12.7918C45.4079 13.1259 45.6789 13.3802 46.0166 13.4335C49.6535 14.0146 52.3305 17.1506 52.3334 20.8334C52.3297 21.0759 52.313 21.318 52.2833 21.5585C52.2528 21.7823 52.3146 22.0094 52.4542 22.1868C52.5942 22.3642 52.8001 22.4773 53.0251 22.5001C53.2477 22.5233 53.4702 22.4561 53.6424 22.3133C53.8149 22.1709 53.9227 21.965 53.9418 21.742C53.9785 21.4405 53.998 21.1374 54 20.8334C54.0171 16.5365 51.0309 12.811 46.8333 11.8918C45.0034 4.91382 38.714 0.0358877 31.5 8.03839e-05C25.2403 -0.0198577 19.5636 3.67073 17.0416 9.40031C16.3161 9.24446 15.5755 9.16593 14.8334 9.16675C9.74547 9.17204 5.34687 12.7174 4.26085 17.6881C3.17524 22.6588 5.69436 27.7153 10.3168 29.8418V29.8418Z" fill="#FFBB01"/>
<path d="M17.3333 30.5087C17.4021 30.5205 17.4729 30.5205 17.5417 30.5087C18.4918 30.267 19.4032 29.8938 20.25 29.4003C20.4416 29.2888 20.5808 29.1057 20.637 28.8916C20.6931 28.6772 20.6618 28.4497 20.5499 28.2585C20.3184 27.8646 19.813 27.7307 19.4167 27.9586C18.6989 28.3745 17.9278 28.6914 17.125 28.9002C16.6648 28.9575 16.3385 29.3775 16.3958 29.8377C16.4532 30.2979 16.8731 30.6242 17.3333 30.5668V30.5087Z" fill="#FFBB01"/>
<path d="M14.0001 35.8334C14.4603 35.8334 14.8335 35.4602 14.8335 35V21.9169L16.6417 24.6253C16.7951 24.858 17.0547 24.9988 17.3335 25C17.4974 25.0021 17.6578 24.9524 17.7916 24.8584C18.1721 24.6041 18.2762 24.091 18.0252 23.7085L14.6919 18.7085C14.6919 18.7085 14.6919 18.7085 14.6499 18.6666C14.4921 18.4697 14.2528 18.3549 14.0001 18.3549C13.7474 18.3549 13.5082 18.4697 13.3503 18.6666C13.3503 18.6666 13.3503 18.6666 13.3084 18.7085L9.97506 23.7085C9.77161 24.0877 9.89043 24.5593 10.2493 24.797C10.6078 25.0346 11.0883 24.9601 11.3585 24.6253L13.1668 21.9169V35C13.1668 35.4602 13.5399 35.8334 14.0001 35.8334Z" fill="#FFBB01"/>
<path d="M35.2914 15.1417C34.9094 14.8906 34.3959 14.9948 34.1415 15.3752L32.3333 18.0836V8.33339C32.3333 7.87319 31.9602 7.50006 31.4999 7.50006C31.0397 7.50006 30.6666 7.87319 30.6666 8.33339V18.0836L28.8584 15.3752C28.7086 15.0965 28.4144 14.9264 28.0983 14.9362C27.7821 14.9459 27.4989 15.1335 27.3667 15.4208C27.2348 15.7081 27.2767 16.0454 27.4749 16.292L30.8082 21.292C30.9632 21.5223 31.2224 21.6602 31.4999 21.6602C31.7775 21.6602 32.0366 21.5223 32.1917 21.292L35.525 16.292C35.7761 15.9095 35.6719 15.396 35.2914 15.1417Z" fill="#FFBB01"/>
</g>
<defs>
<filter id="filter0_d" x="0" y="0" width="58.0001" height="57.1667" filterUnits="userSpaceOnUse" color-interpolation-filters="sRGB">
<feFlood flood-opacity="0" result="BackgroundImageFix"/>
<feColorMatrix in="SourceAlpha" type="matrix" values="0 0 0 0 0 0 0 0 0 0 0 0 0 0 0 0 0 0 127 0"/>
<feOffset dy="4"/>
<feGaussianBlur stdDeviation="2"/>
<feColorMatrix type="matrix" values="0 0 0 0 0 0 0 0 0 0 0 0 0 0 0 0 0 0 0.25 0"/>
<feBlend mode="normal" in2="BackgroundImageFix" result="effect1_dropShadow"/>
<feBlend mode="normal" in="SourceGraphic" in2="effect1_dropShadow" result="shape"/>
</filter>
</defs>
</svg>
